<?xml version="1.0" encoding="UTF-8"?> <svg xmlns="http://www.w3.org/2000/svg" width="65" height="64" viewBox="0 0 65 64" fill="none"><g id="Group"><path id="Vector" d="M64.1379 64H0V0H64.1379V64ZM1.84792 62.1561H62.29V1.84395H1.84792V62.1561Z" fill="#812926"></path><path id="Vector_2" d="M64.1379 0H0V64H64.1379V0Z" fill="#812926"></path><g id="Group_2"><path id="Vector_3" d="M9.01978 35.663H12.8854V42.3909H18.6589V35.663H22.5246V52.3184H18.6589V45.7101H12.8854V52.3184H9.01978V35.663Z" fill="white"></path><path id="Vector_4" d="M25.9407 46.6768V35.663H29.7764V46.4376C29.7764 48.3414 30.9251 49.4079 32.6631 49.4079C34.4012 49.4079 35.5499 48.3414 35.5499 46.4376V35.663H39.4155V46.6768C39.4155 50.5541 36.7685 52.7469 32.6731 52.7469C28.5777 52.7469 25.9507 50.5541 25.9507 46.6768H25.9407Z" fill="white"></path><path id="Vector_5" d="M55.3378 47.6935C55.3378 50.5442 53.3101 52.3084 49.9938 52.3084H42.8618V35.653H49.7241C53.0404 35.653 55.0881 37.2976 55.0881 39.9788C55.0881 42.1417 53.8295 43.4275 51.8917 43.7863C53.8195 43.9757 55.3278 45.3811 55.3278 47.6835L55.3378 47.6935ZM46.7275 38.4439V42.4906H48.8751C50.3534 42.4906 51.2324 41.7331 51.2324 40.4672C51.2324 39.2014 50.3734 38.4439 48.8751 38.4439H46.7275ZM51.4522 47.1951C51.4522 45.9592 50.5232 45.1518 49.1448 45.1518H46.7375V49.3879H49.1448C50.5732 49.3879 51.4522 48.5806 51.4522 47.1951Z" fill="white"></path></g><g id="Group_3"><path id="Vector_6" d="M9.01978 25.3867H11.2273V32.8124H9.01978V25.3867Z" fill="white"></path><path id="Vector_7" d="M13.4946 25.3867H16.3015L17.8897 30.2408L19.4679 25.3867H22.2148V32.8124H20.0872V28.0978L18.7287 32.8124H17.0906L15.6322 28.0779V32.8124H13.5046V25.3867H13.4946Z" fill="white"></path><path id="Vector_8" d="M30.8253 28.1576C30.8253 29.7524 29.6566 30.9186 28.0584 30.9186H26.6799V32.8223H24.4724V25.3967H28.0684C29.6666 25.3967 30.8353 26.5728 30.8353 28.1676L30.8253 28.1576ZM28.5778 28.1576C28.5778 27.5496 28.1483 27.111 27.5989 27.111H26.6699V29.2141H27.5889C28.1483 29.2141 28.5778 28.7656 28.5778 28.1676V28.1576Z" fill="white"></path><g id="Group_4"><path id="Vector_9" d="M36.2592 31.9651H33.8519L33.6221 32.8223H31.3247L33.8619 25.3967H36.2592L38.7863 32.8223H36.4889L36.2592 31.9651ZM35.8296 30.3604L35.0505 27.4699L34.2714 30.3604H35.8197H35.8296Z" fill="white"></path><path id="Vector_10" d="M39.6753 29.1045C39.6753 26.8021 41.3534 25.1575 43.8007 25.1575C46.1181 25.1575 47.6264 26.2937 47.8062 28.2473H45.4688C45.319 27.5696 44.7196 27.121 43.8106 27.121C42.6619 27.121 41.9827 27.8885 41.9827 29.1045C41.9827 30.3205 42.6619 31.088 43.8106 31.088C44.7296 31.088 45.319 30.6395 45.4688 29.9617H47.8062C47.6264 31.9153 46.1181 33.0516 43.8007 33.0516C41.3534 33.0516 39.6753 31.407 39.6753 29.1045Z" fill="white"></path><path id="Vector_11" d="M50.9825 27.2905H49.0647V25.3867H55.1179V27.2905H53.2V32.8223H50.9726V27.2905H50.9825Z" fill="white"></path></g></g></g></svg> 