<svg width="270" height="232" viewBox="0 0 270 232" fill="none" xmlns="http://www.w3.org/2000/svg">
<path d="M9.40424 111.776C-2.97437 111.533 -2.37751 96.0148 6.79308 87.7315L11.1093 83.8328C22.07 73.9326 39.2768 75.9032 47.6943 88.0229L123.48 197.14C124.167 198.13 125.726 197.634 125.711 196.431L123.93 55.5278C123.857 49.7564 127.012 44.4233 132.117 41.6897C142.425 36.17 154.931 43.5364 155.039 55.1908L156.409 203.994C156.502 214.132 150.285 223.27 140.795 226.943L132.019 230.338C121.379 234.456 109.298 230.718 102.808 221.367C78.92 186.947 23.8973 109.142 15.9275 111.046C13.6032 111.601 11.427 111.815 9.40424 111.776Z" fill="black"/>
<path d="M226.371 188.286C236.404 195.51 226.926 207.868 214.635 209.354L209.282 210.001C194.643 211.77 181.767 200.345 181.85 185.66L182.596 53.6076C182.642 45.5322 189.229 39.0097 197.338 39.0097C205.519 39.0097 212.144 45.5851 212.157 53.732C212.214 90.2368 213.129 182.214 220.867 185.296C222.98 186.138 224.801 187.156 226.371 188.286Z" fill="black"/>
<path d="M212.91 14.6286C212.91 22.7078 206.333 29.2573 198.22 29.2573C190.107 29.2573 183.53 22.7078 183.53 14.6286C183.53 6.54947 190.107 0 198.22 0C206.333 0 212.91 6.54947 212.91 14.6286Z" fill="black"/>
<path d="M270 192.996C270 201.075 263.423 207.624 255.31 207.624C247.197 207.624 240.62 201.075 240.62 192.996C240.62 184.916 247.197 178.367 255.31 178.367C263.423 178.367 270 184.916 270 192.996Z" fill="black"/>
</svg>
