<svg width="752" height="326" viewBox="0 0 752 326" fill="none" xmlns="http://www.w3.org/2000/svg">
<path d="M417.09 313.72C398.196 311.526 382.625 304.386 370.378 292.301C358.143 280.104 349.496 264.126 344.435 244.368C339.462 224.62 338.427 202.266 341.33 177.306C344.233 152.347 350.371 130.826 359.744 112.743C369.204 94.6704 381.282 81.1557 395.977 72.1987C410.684 63.1299 427.485 59.6923 446.38 61.8861C468.161 64.4151 485.498 73.5179 498.392 89.1947C508.535 101.427 515.654 116.356 519.749 133.981C521.706 142.405 515.983 150.451 507.543 152.37C497.775 154.591 488.467 147.727 485.458 138.179C482.93 130.157 479.365 123.237 474.762 117.42C466.969 107.44 456.031 101.632 441.947 99.9969C429.263 98.5242 418.256 100.933 408.925 107.223C399.681 113.523 392.148 123.028 386.326 135.738C380.604 148.345 376.671 163.486 374.527 181.161C372.47 198.845 372.773 214.534 375.436 228.229C378.199 241.822 383.4 252.749 391.039 261.009C398.678 269.27 408.839 274.136 421.523 275.609C435.606 277.244 447.586 274.097 457.462 266.169C463.27 261.507 468.32 255.58 472.614 248.388C477.745 239.793 488.382 235.256 497.379 239.655C505.16 243.46 508.887 252.61 505.047 260.369C497.014 276.603 486.653 289.555 473.964 299.224C457.829 311.417 438.871 316.249 417.09 313.72Z" fill="white"/>
<path d="M643.734 289.99C624.686 291.916 607.843 288.345 593.204 279.277C578.554 270.099 566.619 256.493 557.398 238.461C548.265 220.42 542.443 199.015 539.934 174.244C537.425 149.474 538.835 127.337 544.164 107.834C549.582 88.3211 558.552 72.6574 571.075 60.8426C583.587 48.9167 599.367 41.9905 618.415 40.0641C637.463 38.1376 654.312 41.7638 668.962 50.9427C683.688 60.0017 695.618 73.5515 704.751 91.5924C713.972 109.624 719.838 131.025 722.347 155.796C724.857 180.566 723.402 202.708 717.985 222.22C712.655 241.724 703.691 257.443 691.091 269.378C678.568 281.192 662.782 288.063 643.734 289.99ZM639.902 252.167C652.701 250.985 662.967 246.356 670.701 238.28C678.524 230.195 683.888 219.384 686.793 205.849C689.786 192.305 690.394 176.758 688.616 159.207C686.838 141.657 683.136 126.658 677.509 114.21C671.96 101.642 664.542 92.1803 655.257 85.8253C646.059 79.4615 635.056 76.8151 622.246 77.8861C609.448 79.0683 599.182 83.6975 591.447 91.7738C583.713 99.85 578.349 110.66 575.356 124.205C572.451 137.74 571.887 153.283 573.665 170.833C575.443 188.383 579.107 203.442 584.656 216.01C590.195 228.467 597.563 237.878 606.76 244.242C616.045 250.597 627.093 253.239 639.902 252.167Z" fill="white"/>
<path d="M13.1706 157.064C-4.1656 156.723 -3.3297 134.917 9.51368 123.278L15.5586 117.8C30.909 103.888 55.007 106.657 66.7957 123.687L172.933 277.016C173.896 278.406 176.079 277.71 176.058 276.02L173.563 78.0261C173.461 69.9163 177.88 62.4223 185.029 58.5813C199.466 50.8251 216.981 61.1762 217.131 77.5526L219.05 286.646C219.18 300.893 210.473 313.733 197.182 318.893L184.893 323.665C169.991 329.451 153.071 324.199 143.982 311.059C110.527 262.693 33.4681 153.363 22.3064 156.038C19.0512 156.818 16.0035 157.12 13.1706 157.064Z" fill="white"/>
<path d="M317.032 264.575C331.083 274.725 317.809 292.091 300.595 294.178L293.099 295.087C272.597 297.573 254.564 281.519 254.68 260.884L255.725 75.328C255.789 63.9805 265.014 54.8154 276.371 54.8154C287.829 54.8154 297.107 64.0549 297.125 75.5028C297.205 126.798 298.487 256.042 309.323 260.373C312.282 261.556 314.833 262.987 317.032 264.575Z" fill="white"/>
<path d="M298.179 20.5558C298.179 31.9084 288.968 41.1115 277.606 41.1115C266.244 41.1115 257.033 31.9084 257.033 20.5558C257.033 9.20313 266.244 0 277.606 0C288.968 0 298.179 9.20313 298.179 20.5558Z" fill="white"/>
<path d="M752 275.609C752 286.961 742.789 296.165 731.427 296.165C720.065 296.165 710.854 286.961 710.854 275.609C710.854 264.256 720.065 255.053 731.427 255.053C742.789 255.053 752 264.256 752 275.609Z" fill="white"/>
</svg>
