<svg width="270" height="233" viewBox="0 0 270 233" fill="none" xmlns="http://www.w3.org/2000/svg">
<path d="M9.40424 112.258C-2.97437 112.013 -2.37751 96.4287 6.79308 88.1096L11.1093 84.1942C22.07 74.2512 39.2768 76.2304 47.6943 88.4023L123.48 197.99C124.167 198.984 125.726 198.486 125.711 197.278L123.93 55.7671C123.857 49.9709 127.012 44.6147 132.117 41.8694C142.425 36.3259 154.931 43.7241 155.039 55.4287L156.409 204.873C156.502 215.055 150.285 224.232 140.795 227.921L132.019 231.331C121.379 235.467 109.298 231.713 102.808 222.321C78.92 187.753 23.8973 109.612 15.9275 111.524C13.6032 112.082 11.427 112.297 9.40424 112.258Z" fill="white"/>
<path d="M226.371 189.098C236.404 196.353 226.926 208.764 214.635 210.256L209.282 210.906C194.643 212.682 181.767 201.208 181.85 186.46L182.596 53.8387C182.642 45.7284 189.229 39.1779 197.338 39.1779C205.519 39.1779 212.144 45.7816 212.157 53.9636C212.214 90.6258 213.129 182.999 220.867 186.095C222.98 186.94 224.801 187.963 226.371 189.098Z" fill="white"/>
<path d="M212.91 14.6917C212.91 22.8057 206.333 29.3834 198.22 29.3834C190.107 29.3834 183.53 22.8057 183.53 14.6917C183.53 6.5777 190.107 0 198.22 0C206.333 0 212.91 6.5777 212.91 14.6917Z" fill="white"/>
<path d="M270 193.828C270 201.942 263.423 208.519 255.31 208.519C247.197 208.519 240.62 201.942 240.62 193.828C240.62 185.714 247.197 179.136 255.31 179.136C263.423 179.136 270 185.714 270 193.828Z" fill="white"/>
</svg>
