<svg width="752" height="327" viewBox="0 0 752 327" fill="none" xmlns="http://www.w3.org/2000/svg">
<path d="M417.09 314.682C398.196 312.481 382.625 305.32 370.378 293.198C358.143 280.963 349.496 264.937 344.435 245.117C339.462 225.309 338.427 202.886 341.33 177.85C344.233 152.814 350.371 131.227 359.744 113.089C369.204 94.9608 381.282 81.4046 395.977 72.4202C410.684 63.3235 427.485 59.8754 446.38 62.076C468.161 64.6127 485.498 73.7435 498.392 89.4683C508.535 101.738 515.654 116.713 519.749 134.392C521.706 142.842 515.983 150.913 507.543 152.837C497.775 155.065 488.467 148.18 485.458 138.603C482.93 130.557 479.365 123.615 474.762 117.78C466.969 107.769 456.031 101.944 441.947 100.304C429.263 98.8265 418.256 101.243 408.925 107.552C399.681 113.871 392.148 123.405 386.326 136.154C380.604 148.8 376.671 163.988 374.527 181.716C372.47 199.455 372.773 215.192 375.436 228.929C378.199 242.564 383.4 253.524 391.039 261.81C398.678 270.096 408.839 274.977 421.523 276.454C435.606 278.094 447.586 274.938 457.462 266.986C463.27 262.309 468.32 256.364 472.614 249.15C477.745 240.528 488.382 235.977 497.379 240.39C505.16 244.206 508.887 253.385 505.047 261.168C497.014 277.451 486.653 290.443 473.964 300.142C457.829 312.372 438.871 317.219 417.09 314.682Z" fill="black"/>
<path d="M643.734 290.879C624.686 292.811 607.843 289.23 593.204 280.134C578.554 270.927 566.619 257.28 557.398 239.193C548.265 221.097 542.443 199.625 539.934 174.779C537.425 149.933 538.835 127.728 544.164 108.164C549.582 88.592 558.552 72.8803 571.075 61.0292C583.587 49.0668 599.367 42.1193 618.415 40.187C637.463 38.2546 654.312 41.8919 668.962 51.099C683.688 60.1857 695.618 73.7772 704.751 91.8733C713.972 109.961 719.838 131.427 722.347 156.274C724.857 181.12 723.402 203.329 717.985 222.902C712.655 242.465 703.691 258.233 691.091 270.204C678.568 282.055 662.782 288.947 643.734 290.879ZM639.902 252.941C652.701 251.755 662.967 247.112 670.701 239.011C678.524 230.901 683.888 220.057 686.793 206.481C689.786 192.895 690.394 177.3 688.616 159.696C686.838 142.092 683.136 127.046 677.509 114.56C671.96 101.954 664.542 92.463 655.257 86.0886C646.059 79.7052 635.056 77.0507 622.246 78.125C609.448 79.3108 599.182 83.9542 591.447 92.0553C583.713 100.156 578.349 111 575.356 124.586C572.451 138.162 571.887 153.753 573.665 171.357C575.443 188.961 579.107 204.067 584.656 216.673C590.195 229.168 597.563 238.608 606.76 244.991C616.045 251.365 627.093 254.015 639.902 252.941Z" fill="black"/>
<path d="M13.1706 157.546C-4.1656 157.203 -3.3297 135.331 9.51368 123.656L15.5586 118.161C30.909 104.207 55.007 106.984 66.7957 124.067L172.933 277.865C173.896 279.26 176.079 278.562 176.058 276.866L173.563 78.2655C173.461 70.1308 177.88 62.6138 185.029 58.761C199.466 50.981 216.981 61.3638 217.131 77.7905L219.05 287.525C219.18 301.816 210.473 314.695 197.182 319.872L184.893 324.658C169.991 330.462 153.071 325.194 143.982 312.013C110.527 263.499 33.4681 153.834 22.3064 156.517C19.0512 157.299 16.0035 157.602 13.1706 157.546Z" fill="black"/>
<path d="M317.032 265.386C331.083 275.568 317.809 292.987 300.595 295.08L293.099 295.992C272.597 298.486 254.564 282.382 254.68 261.684L255.725 75.559C255.789 64.1768 265.014 54.9835 276.371 54.9835C287.829 54.9835 297.107 64.2514 297.125 75.7344C297.205 127.187 298.487 256.828 309.323 261.172C312.282 262.358 314.833 263.793 317.032 265.386Z" fill="black"/>
<path d="M298.179 20.6188C298.179 32.0063 288.968 41.2376 277.606 41.2376C266.244 41.2376 257.033 32.0063 257.033 20.6188C257.033 9.23136 266.244 0 277.606 0C288.968 0 298.179 9.23136 298.179 20.6188Z" fill="black"/>
<path d="M752 276.454C752 287.842 742.789 297.073 731.427 297.073C720.065 297.073 710.854 287.842 710.854 276.454C710.854 265.067 720.065 255.835 731.427 255.835C742.789 255.835 752 265.067 752 276.454Z" fill="black"/>
</svg>
