<svg width="528" height="229" viewBox="0 0 528 229" fill="none" xmlns="http://www.w3.org/2000/svg">
<path d="M292.443 220.374C279.195 218.833 268.278 213.817 259.69 205.328C251.112 196.76 245.049 185.537 241.501 171.657C238.014 157.785 237.289 142.082 239.324 124.549C241.359 107.017 245.663 91.8989 252.235 79.1967C258.868 66.5016 267.336 57.0081 277.639 50.7163C287.951 44.3458 299.732 41.9311 312.979 43.4722C328.251 45.2486 340.407 51.643 349.448 62.6552C356.559 71.2478 361.551 81.7346 364.422 94.1157C365.795 100.033 361.782 105.685 355.864 107.033C349.015 108.593 342.489 103.771 340.379 97.0644C338.607 91.4295 336.107 86.5686 332.88 82.4818C327.416 75.4714 319.746 71.3919 309.872 70.2432C300.978 69.2088 293.26 70.9007 286.718 75.3192C280.237 79.7447 274.955 86.4215 270.873 95.3494C266.861 104.206 264.103 114.842 262.6 127.257C261.158 139.679 261.37 150.701 263.237 160.32C265.174 169.869 268.821 177.544 274.177 183.347C279.533 189.149 286.658 192.568 295.551 193.602C305.425 194.751 313.825 192.541 320.75 186.972C324.822 183.697 328.363 179.533 331.373 174.481C334.971 168.443 342.429 165.256 348.737 168.347C354.193 171.019 356.806 177.447 354.114 182.897C348.482 194.301 341.217 203.399 332.32 210.191C321.007 218.756 307.715 222.15 292.443 220.374Z" fill="#F4F4F4"/>
<path d="M451.355 203.704C437.999 205.058 426.189 202.549 415.925 196.18C405.654 189.732 397.285 180.175 390.82 167.508C384.416 154.835 380.335 139.799 378.575 122.399C376.816 104.999 377.804 89.4484 381.541 75.7481C385.34 62.0415 391.629 51.0385 400.41 42.7391C409.182 34.3617 420.246 29.4964 433.602 28.1432C446.958 26.7899 458.771 29.3372 469.043 35.7849C479.368 42.1484 487.733 51.6666 494.137 64.3394C500.602 77.006 504.715 92.0394 506.474 109.439C508.234 126.839 507.214 142.393 503.415 156.099C499.679 169.8 493.393 180.842 484.559 189.225C475.778 197.525 464.71 202.351 451.355 203.704ZM448.668 177.136C457.641 176.306 464.84 173.054 470.263 167.381C475.748 161.701 479.508 154.107 481.545 144.6C483.644 135.085 484.07 124.164 482.823 111.836C481.577 99.5075 478.981 88.9713 475.036 80.2271C471.145 71.3987 465.944 64.7524 459.434 60.2883C452.985 55.818 445.27 53.959 436.288 54.7114C427.315 55.5418 420.117 58.7936 414.694 64.4668C409.271 70.14 405.51 77.7338 403.411 87.248C401.374 96.7559 400.979 107.674 402.226 120.002C403.472 132.331 406.041 142.909 409.932 151.737C413.815 160.488 418.981 167.098 425.43 171.569C431.941 176.033 439.687 177.888 448.668 177.136Z" fill="#F4F4F4"/>
<path d="M9.23458 110.33C-2.92071 110.09 -2.33462 94.7733 6.67052 86.597L10.9089 82.7488C21.6718 72.9765 38.5682 74.9217 46.8338 86.8847L121.252 194.591C121.927 195.568 123.458 195.079 123.443 193.891L121.694 54.8098C121.622 49.113 124.721 43.8488 129.733 41.1506C139.855 35.7023 152.136 42.9735 152.242 54.4771L153.587 201.356C153.678 211.363 147.573 220.383 138.255 224.008L129.638 227.36C119.189 231.424 107.326 227.735 100.953 218.504C77.4962 184.53 23.4662 107.731 15.6401 109.61C13.3578 110.158 11.2208 110.37 9.23458 110.33Z" fill="#F4F4F4"/>
<path d="M222.287 185.852C232.139 192.982 222.832 205.18 210.763 206.647L205.507 207.285C191.131 209.031 178.488 197.754 178.569 183.259L179.302 52.9144C179.347 44.9434 185.815 38.5053 193.778 38.5053C201.811 38.5053 208.316 44.9956 208.329 53.0372C208.386 89.07 209.284 179.858 216.882 182.9C218.957 183.731 220.745 184.736 222.287 185.852Z" fill="#F4F4F4"/>
<path d="M209.069 14.4395C209.069 22.4142 202.61 28.879 194.644 28.879C186.677 28.879 180.219 22.4142 180.219 14.4395C180.219 6.46478 186.677 0 194.644 0C202.61 0 209.069 6.46478 209.069 14.4395Z" fill="#F4F4F4"/>
<path d="M527.265 193.602C527.265 201.577 520.807 208.042 512.84 208.042C504.874 208.042 498.415 201.577 498.415 193.602C498.415 185.628 504.874 179.163 512.84 179.163C520.807 179.163 527.265 185.628 527.265 193.602Z" fill="#F4F4F4"/>
</svg>
