<svg width="189" height="163" viewBox="0 0 189 163" fill="none" xmlns="http://www.w3.org/2000/svg">
<path d="M6.58297 78.5321C-2.08206 78.3614 -1.66426 67.4587 4.75515 61.6389L7.77653 58.8998C15.449 51.944 27.4937 53.3286 33.386 61.8437L86.436 138.508C86.9171 139.203 88.0082 138.855 87.9976 138.01L86.7509 39.0131C86.6998 34.9582 88.9085 31.2112 92.4819 29.2906C99.6974 25.4126 108.452 30.5881 108.527 38.7763L109.486 143.323C109.551 150.446 105.199 156.866 98.5562 159.447L92.4136 161.833C84.9655 164.726 76.5085 162.1 71.9655 155.529C55.244 131.346 16.7281 76.6816 11.1492 78.0191C9.52223 78.4092 7.99889 78.56 6.58297 78.5321Z" fill="#9B72F4"/>
<path d="M158.46 132.287C165.483 137.363 158.848 146.045 150.244 147.089L146.498 147.543C136.25 148.786 127.237 140.759 127.295 130.442L127.817 37.664C127.849 31.9903 132.46 27.4077 138.137 27.4077C143.863 27.4077 148.501 32.0274 148.51 37.7514C148.55 63.3992 149.19 128.021 154.607 130.187C156.086 130.778 157.361 131.493 158.46 132.287Z" fill="#9B72F4"/>
<path d="M149.037 10.2779C149.037 15.9542 144.433 20.5558 138.754 20.5558C133.075 20.5558 128.471 15.9542 128.471 10.2779C128.471 4.60156 133.075 0 138.754 0C144.433 0 149.037 4.60156 149.037 10.2779Z" fill="#9B72F4"/>
<path d="M189 135.596C189 141.272 184.396 145.874 178.717 145.874C173.038 145.874 168.434 141.272 168.434 135.596C168.434 129.92 173.038 125.318 178.717 125.318C184.396 125.318 189 129.92 189 135.596Z" fill="#9B72F4"/>
</svg>
